# xmcd
#
# Track frame offsets: 
#        150
#        23857
#        48160
#        70762
#        92588
#        112856
#        137438
#        158955
#        174723
#        201275
#        221395
#        243912
#        260591
#
# Disc length: 3882 seconds
#
# Revision: 0
# Processed by: cddbd v1.5.2PL0 Copyright (c) Steve Scherf et al.
# Submitted via: ExactAudioCopyFreeDBPlugin 1.0
#
DISCID=ab0f280d
DTITLE=Hip Lankchan - Storyville - The Chicago Blues Box 2 - CD2
DYEAR=2017
DGENRE=Blues
TTITLE0=You Left Me With A Broken Heart
TTITLE1=I'm On My Way
TTITLE2=Last Night
TTITLE3=All Your Love
TTITLE4=I Don't Want No Woman
TTITLE5=Black Nights
TTITLE6=Somebody Loan Me A Dime
TTITLE7=Same Old Blues
TTITLE8=Why I Sing The Blues
TTITLE9=Eddie Clearwater - Everyday I Have The Blues
TTITLE10=Eddie Clearwater - You Don't Have To Go
TTITLE11=Eddie Clearwater - Poison Ivy
TTITLE12=Eddie Clearwater - My Babe
EXTD=
EXTT0=
EXTT1=
EXTT2=
EXTT3=
EXTT4=
EXTT5=
EXTT6=
EXTT7=
EXTT8=
EXTT9=
EXTT10=
EXTT11=
EXTT12=
PLAYORDER=
